<?xml version="1.0" encoding="UTF-8"?>
<svg width="440" height="320" viewBox="0 0 440 320" xmlns="http://www.w3.org/2000/svg">
  <defs>
    <linearGradient id="bgGradient" x1="0%" y1="0%" x2="100%" y2="100%">
      <stop offset="0%" stop-color="#fee2e2"/>
      <stop offset="100%" stop-color="#fecaca"/>
    </linearGradient>
    <radialGradient id="bowlGradient" cx="50%" cy="0%" r="100%">
      <stop offset="0%" stop-color="#ffffff" stop-opacity="0.96"/>
      <stop offset="100%" stop-color="#e5e7eb"/>
    </radialGradient>
    <radialGradient id="noodleGradient" cx="50%" cy="40%" r="60%">
      <stop offset="0%" stop-color="#fef3c7"/>
      <stop offset="100%" stop-color="#facc15"/>
    </radialGradient>
  </defs>
  <rect width="440" height="320" fill="url(#bgGradient)"/>
  <ellipse cx="220" cy="250" rx="180" ry="24" fill="#f97316" fill-opacity="0.18"/>
  <g transform="translate(40,42)">
    <ellipse cx="180" cy="180" rx="180" ry="82" fill="url(#bowlGradient)"/>
    <ellipse cx="180" cy="160" rx="155" ry="60" fill="#d1d5db"/>
    <ellipse cx="180" cy="142" rx="130" ry="44" fill="url(#noodleGradient)"/>
    <path d="M68 134c30 30 106 46 210 4-4 28-60 54-110 54s-88-20-100-58z" fill="#fde68a" opacity="0.7"/>
    <g fill="none" stroke="#eab308" stroke-width="4" stroke-linecap="round">
      <path d="M80 140c20 20 60 34 110 34 60 0 98-16 120-36" stroke-opacity="0.75"/>
      <path d="M95 120c22 18 56 30 105 30 52 0 86-14 104-32" stroke-opacity="0.55"/>
    </g>
    <g fill="#9a3412">
      <ellipse cx="150" cy="138" rx="20" ry="12"/>
      <ellipse cx="210" cy="132" rx="24" ry="14"/>
      <ellipse cx="185" cy="154" rx="22" ry="12"/>
    </g>
    <g fill="#f8fafc">
      <ellipse cx="235" cy="128" rx="14" ry="10"/>
      <ellipse cx="135" cy="130" rx="16" ry="10"/>
    </g>
    <g fill="#16a34a">
      <path d="M230 150c12-4 26-2 32 6-6 12-18 18-30 20-14 2-24-8-2-26z"/>
      <path d="M120 148c-12-4-24-2-28 6 6 12 16 18 26 20 12 2 22-8 2-26z"/>
      <circle cx="178" cy="144" r="8"/>
      <circle cx="208" cy="148" r="7"/>
    </g>
    <path d="M30 158c0 40 70 72 150 72s150-32 150-72" stroke="#9ca3af" stroke-width="6" stroke-linecap="round" fill="none"/>
  </g>
</svg>
