<?xml version="1.0" encoding="UTF-8"?>
<svg width="440" height="320" viewBox="0 0 440 320" xmlns="http://www.w3.org/2000/svg">
  <defs>
    <linearGradient id="bgGradient" x1="0%" y1="0%" x2="100%" y2="100%">
      <stop offset="0%" stop-color="#fef3c7"/>
      <stop offset="100%" stop-color="#fde68a"/>
    </linearGradient>
    <radialGradient id="brothGradient" cx="50%" cy="45%" r="55%">
      <stop offset="0%" stop-color="#fde68a"/>
      <stop offset="100%" stop-color="#f59e0b"/>
    </radialGradient>
    <radialGradient id="bowlGradient" cx="50%" cy="0%" r="100%">
      <stop offset="0%" stop-color="#ffffff" stop-opacity="0.95"/>
      <stop offset="100%" stop-color="#e5e7eb"/>
    </radialGradient>
  </defs>
  <rect width="440" height="320" fill="url(#bgGradient)"/>
  <ellipse cx="220" cy="250" rx="180" ry="24" fill="#d4af37" fill-opacity="0.2"/>
  <g transform="translate(40,40)">
    <ellipse cx="180" cy="180" rx="180" ry="82" fill="url(#bowlGradient)"/>
    <ellipse cx="180" cy="160" rx="155" ry="60" fill="#d1d5db"/>
    <ellipse cx="180" cy="150" rx="140" ry="48" fill="url(#brothGradient)"/>
    <ellipse cx="180" cy="135" rx="115" ry="34" fill="#fcd34d"/>
    <path d="M80 122c18-18 56-34 100-34s82 16 100 34c-18 10-56 20-100 20s-82-10-100-20z" fill="#fef08a" opacity="0.6"/>
    <g fill="#bfdbfe" opacity="0.9">
      <rect x="130" y="88" width="12" height="70" rx="6" transform="rotate(12 136 123)"/>
      <rect x="200" y="90" width="12" height="70" rx="6" transform="rotate(-14 206 125)"/>
      <rect x="160" y="92" width="10" height="66" rx="5" transform="rotate(6 165 125)"/>
      <rect x="220" y="96" width="10" height="66" rx="5" transform="rotate(-6 225 129)"/>
    </g>
    <g fill="#991b1b">
      <ellipse cx="155" cy="145" rx="20" ry="12"/>
      <ellipse cx="210" cy="140" rx="24" ry="14"/>
      <ellipse cx="185" cy="162" rx="22" ry="12"/>
    </g>
    <g fill="#fef3c7" opacity="0.85">
      <path d="M120 150c28 18 112 24 150-2 6 10-4 22-24 32-28 12-86 12-118-12-12-9-15-14-8-18z"/>
    </g>
    <g fill="#16a34a">
      <path d="M240 122c12-6 28-4 34 4-4 10-16 16-28 18-10 2-18-6-6-22z"/>
      <path d="M120 120c-12-6-26-4-32 4 4 10 14 16 24 18 10 2 20-6 8-22z"/>
      <circle cx="175" cy="125" r="8"/>
      <circle cx="205" cy="128" r="7"/>
    </g>
    <path d="M30 160c0 40 70 72 150 72s150-32 150-72" stroke="#9ca3af" stroke-width="6" stroke-linecap="round" fill="none"/>
  </g>
</svg>
